<svg xmlns="http://www.w3.org/2000/svg" xmlns:xlink="http://www.w3.org/1999/xlink" viewBox="0 0 350 330">

  <g id="airship-outside">

    <g id="airship">

      <g id="airship-windows">

        <path d="M175.44,249.28h48.36a13.27,13.27,0,0,0,13-10.65l3.74-18.32H172.36v25.89A3.09,3.09,0,0,0,175.44,249.28Z"
              fill="none" stroke="#fff" stroke-linecap="round" stroke-linejoin="round" stroke-width="2"/>
        <path d="M235.79,241.69h-9.22a8.31,8.31,0,0,1-8.28-8.31V220.31" fill="none" stroke="#fff" stroke-linecap="round"
              stroke-miterlimit="10" stroke-width="2"/>
        <path
          d="M185.64,231.88h-2.05a3.45,3.45,0,0,0-3.43,3.45v2.92a3.45,3.45,0,0,0,3.43,3.45h2.05a3.45,3.45,0,0,0,3.43-3.45v-2.92A3.45,3.45,0,0,0,185.64,231.88Z"
          fill="none" stroke="#fff" stroke-linecap="round" stroke-linejoin="round" stroke-width="2"/>
        <path id="window-small"
              d="M204.25,231.88h-2.05a3.45,3.45,0,0,0-3.43,3.45v2.92a3.45,3.45,0,0,0,3.43,3.45h2.05a3.45,3.45,0,0,0,3.43-3.45v-2.92A3.44,3.44,0,0,0,204.25,231.88Z"
              fill="none" stroke="#fff" stroke-linecap="round" stroke-linejoin="round" stroke-width="2"/>
      </g>

      <g id="airship-body">
        <path
          d="M205,227.08c43.38,0,74.86-15.55,74.86-37s-31.48-37-74.86-37c-27.94,0-55.36,13.53-73.46,24.87a14.3,14.3,0,0,0,0,24.21c18.09,11.33,45.52,24.87,73.46,24.87"
          fill="#068e4d"/>
        <path
          d="M205,227.08c43.38,0,74.86-15.55,74.86-37s-31.48-37-74.86-37c-27.94,0-55.36,13.53-73.46,24.87a14.3,14.3,0,0,0,0,24.21C149.63,213.54,177.06,227.08,205,227.08Z"
          fill="none" stroke="#fff" stroke-width="2"/>
        <path
          d="M204.99 179C176.76 179 148.93 181.85 132.19 186.09C128.24 187.09 126.19 188.75 126.11 190.43C126.028 188.159 126.546 185.908 127.612 183.901C128.678 181.894 130.253 180.204 132.18 179C148.92 168.5 176.76 154.32 204.99 154.32C249.8 154.32 278.63 170.32 278.63 190.07C278.63 190.19 278.63 190.31 278.63 190.44C278.26 182.49 249.52 179 204.99 179Z"
          fill="#36e69a"/>
        <path
          d="M132.18,195.12c16.74,4.27,44.58,10,72.81,10,44.14,0,72.75-6.32,73.6-14.18-0.86,19.34-29.45,34.86-73.6,34.86-28.23,0-56.07-14.19-72.81-24.68a12.88,12.88,0,0,1-6-10.18c0.26,1.61,2.26,3.18,6,4.14"
          fill="#068e4d"/>

        <path id="airship-body-center"
              d="M132.18 186.12C148.92 181.85 176.77 173 205 173C249.53 173 278.25 182.55 278.6 190.5C278.6 190.67 278.6 190.84 278.6 191.01C277.75 198.87 249.15 203 205 203C176.77 203 148.93 199.42 132.19 195.18C128.4 194.18 126.4 192.65 126.19 191.05V190.54C126.32 188.85 128.34 187.18 132.29 186.17"
              fill="#25b774">
        </path>
      </g>

      <g id="airship-rear-wing-top">
        <path
          d="M123.23,173.34h9.16a3.29,3.29,0,0,1,3.29,3.3v5.71a3.29,3.29,0,0,1-3.29,3.3H115.57a1.32,1.32,0,0,1-1.32-1.32v-2a9,9,0,0,1,9-9"
          fill="#068e4d"/>
        <path
          d="M123.23,173.34h9.16a3.29,3.29,0,0,1,3.29,3.3v5.71a3.29,3.29,0,0,1-3.29,3.3H115.57a1.32,1.32,0,0,1-1.32-1.32v-2A9,9,0,0,1,123.23,173.34Z"
          fill="none" stroke="#fff" stroke-linecap="round" stroke-linejoin="round" stroke-width="2"/>
      </g>

      <g id="airship-rear-wing-bottom">
        <path
          d="M123.23,207.39h9.16a3.29,3.29,0,0,0,3.29-3.3v-5.71a3.29,3.29,0,0,0-3.29-3.3H115.57a1.32,1.32,0,0,0-1.32,1.32v2a9,9,0,0,0,9,9"
          fill="#068e4d"/>
        <path
          d="M123.23,207.39h9.16a3.29,3.29,0,0,0,3.29-3.3v-5.71a3.29,3.29,0,0,0-3.29-3.3H115.57a1.32,1.32,0,0,0-1.32,1.32v2A9,9,0,0,0,123.23,207.39Z"
          fill="none" stroke="#fff" stroke-linecap="round" stroke-linejoin="round" stroke-width="2"/>
      </g>

      <g id="airship-front-wing-top">
        <path
          d="M123.23,173.34h9.16a3.29,3.29,0,0,1,3.29,3.3v5.71a3.29,3.29,0,0,1-3.29,3.3H115.57a1.32,1.32,0,0,1-1.32-1.32v-2a9,9,0,0,1,9-9"
          fill="#068e4d"/>

        <path
          d="M123.23,173.34h9.16a3.29,3.29,0,0,1,3.29,3.3v5.71a3.29,3.29,0,0,1-3.29,3.3H115.57a1.32,1.32,0,0,1-1.32-1.32v-2A9,9,0,0,1,123.23,173.34Z"
          fill="none" stroke="#fff" stroke-linecap="round" stroke-linejoin="round" stroke-width="2"/>
      </g>

      <g id="airship-front-wing-bottom">
        <path
          d="M123.23,207.39h9.16a3.29,3.29,0,0,0,3.29-3.3v-5.71a3.29,3.29,0,0,0-3.29-3.3H115.57a1.32,1.32,0,0,0-1.32,1.32v2a9,9,0,0,0,9,9"
          fill="#068e4d"/>
        <path
          d="M123.23,207.39h9.16a3.29,3.29,0,0,0,3.29-3.3v-5.71a3.29,3.29,0,0,0-3.29-3.3H115.57a1.32,1.32,0,0,0-1.32,1.32v2A9,9,0,0,0,123.23,207.39Z"
          fill="none" stroke="#fff" stroke-linecap="round" stroke-linejoin="round" stroke-width="2"/>
      </g>

      <g id="fire">
        <line id="fire-top" x1="106.25" y1="179.49" x2="84.05" y2="179.49" fill="none" stroke="#fff"
              stroke-linecap="round"
              stroke-miterlimit="10" stroke-width="2"/>
        <line id="fire-bottom" x1="106.25" y1="201.23" x2="84.05" y2="201.23" fill="none" stroke="#fff"
              stroke-linecap="round"
              stroke-miterlimit="10" stroke-width="2"/>
        <line id="fire-middle" x1="106.25" y1="190.98" x2="68.77" y2="190.98" fill="none" stroke="#fff"
              stroke-linecap="round"
              stroke-miterlimit="10" stroke-width="2"/>
      </g>
    </g>

    <path id="cloud-first-top" style="opacity: 0" d="M41.77,97.54H77.06a12.4,12.4,0,1,1,24.8,0h17.93" fill="none"
          stroke="#fff" stroke-linecap="round"
          stroke-miterlimit="10" stroke-width="2"/>
    <line id="cloud-first-bottom" style="opacity: 0" x1="68.95" y1="107.8" x2="131.86" y2="107.8" fill="none"
          stroke="#fff" stroke-linecap="round"
          stroke-miterlimit="10" stroke-width="2"/>

    <g id="cloud-two-top" style="opacity: 0">
      <path d="M278.75,82.91H251.39a12.4,12.4,0,1,0-24.8,0H208.65" fill="none" stroke="#fff" stroke-linecap="round"
            stroke-miterlimit="10" stroke-width="2"/>
      <line x1="287.01" y1="82.91" x2="309.21" y2="82.91" fill="none" stroke="#fff" stroke-linecap="round"
            stroke-miterlimit="10" stroke-width="2"/>
    </g>
    <line id="cloud-two-bottom" style="opacity: 0" x1="258.96" y1="93.19" x2="298.74" y2="93.19" fill="none"
          stroke="#fff"
          stroke-linecap="round"
          stroke-miterlimit="10" stroke-width="2"/>
  </g>

  <g id="airship-inside" style="opacity: 0">
    <g id="skis" style="opacity: 0">
      <path
        d="M91.14,327.79a2.2,2.2,0,0,1-2-2.36l13.66-193.17c1.1-15.49-4.8-21.92-8.75-24.47a1.35,1.35,0,0,1,.53-2.45C103,104,122.18,104,120,134.19L106.43,326.67a2.2,2.2,0,0,1-2.35,2Z"
        fill="#fff"/>
      <path
        d="M124.5,328.17a2.2,2.2,0,0,1-2.17-2.23l2.24-193.63c0.19-15.53-6.07-21.61-10.16-23.91a1.35,1.35,0,0,1,.39-2.47c8.36-1.9,27.49-3,27.15,27.28l-2.25,192.93a2.2,2.2,0,0,1-2.22,2.18Z"
        fill="#fff"/>
    </g>

    <g id="armchair" style="opacity: 0">
      <path d="M257.5,259.82H196.76V245.63h55.09a9.92,9.92,0,0,1,9.9,9.93,4.26,4.26,0,0,1-4.25,4.25" fill="#a67ee5"/>
      <path d="M257.5,259.82H196.76V245.63h55.09a9.92,9.92,0,0,1,9.9,9.93A4.26,4.26,0,0,1,257.5,259.82Z" fill="none"
            stroke="#fff" stroke-miterlimit="10" stroke-width="2"/>
      <polygon points="185.47 328.31 171.5 328.31 165.19 286.72 179.16 286.72 185.47 328.31" fill="#a67ee5"/>
      <polygon points="185.47 328.31 171.5 328.31 165.19 286.72 179.16 286.72 185.47 328.31" fill="none" stroke="#fff"
               stroke-miterlimit="10" stroke-width="2"/>
      <polygon points="235.03 328.31 221.06 328.31 214.76 286.72 228.72 286.72 235.03 328.31" fill="#a67ee5"/>
      <polygon points="235.03 328.31 221.06 328.31 214.76 286.72 228.72 286.72 235.03 328.31" fill="none" stroke="#fff"
               stroke-miterlimit="10" stroke-width="2"/>
      <path
        d="M281.33,272.45H225.44a5.59,5.59,0,0,1-5.53-4.77l-10.86-72.24a17.71,17.71,0,0,0-12.49-31.31H141.48L141.16,267l15.77,23.35,47.19,8.39a12.3,12.3,0,0,0,4.22.75h73a13.53,13.53,0,0,0,0-27.06"
        fill="#a67ee5"/>
      <path
        d="M281.33,272.45H225.44a5.59,5.59,0,0,1-5.53-4.77l-10.86-72.24a17.71,17.71,0,0,0-12.49-31.31H141.48L141.16,267l15.77,23.35,47.19,8.39a12.3,12.3,0,0,0,4.22.75h73A13.53,13.53,0,0,0,281.33,272.45Z"
        fill="none" stroke="#fff" stroke-miterlimit="10" stroke-width="2"/>
      <path
        d="M162.42,267.69l-10.86-72.24a17.71,17.71,0,1,0-29-13.61,18,18,0,0,0,.79,5.25L138.65,289a12.36,12.36,0,0,0,12.21,10.54h73a13.53,13.53,0,0,0,0-27.05H167.95a5.62,5.62,0,0,1-5.53-4.78"
        fill="#a67ee5"/>
      <path
        d="M162.42,267.69l-10.86-72.24a17.71,17.71,0,1,0-29-13.61,18,18,0,0,0,.79,5.25L138.65,289a12.36,12.36,0,0,0,12.21,10.54h73a13.53,13.53,0,0,0,0-27.05H167.95A5.62,5.62,0,0,1,162.42,267.69Z"
        fill="none" stroke="#fff" stroke-miterlimit="10" stroke-width="2"/>
      <path d="M206.26,259.82h-72l-2.13-14.19H200.6a9.92,9.92,0,0,1,9.9,9.93,4.26,4.26,0,0,1-4.25,4.25" fill="#a67ee5"/>
      <path d="M206.26,259.82h-72l-2.13-14.19H200.6a9.92,9.92,0,0,1,9.9,9.93A4.26,4.26,0,0,1,206.26,259.82Z" fill="none"
            stroke="#fff" stroke-miterlimit="10" stroke-width="2"/>
      <line x1="151.57" y1="195.44" x2="209.05" y2="195.44" fill="none" stroke="#fff" stroke-linecap="round"
            stroke-miterlimit="10" stroke-width="2"/>
    </g>
    <g id="leaf" style="opacity: 0">
      <path
        d="M79.18,194A131,131,0,0,1,94.77,220.9a255,255,0,0,1-20.08-23.55,259,259,0,0,1-17.07-25.88A131.72,131.72,0,0,1,79.18,194"
        fill="#36e69a"/>
      <path
        d="M80.94,214.39a127.19,127.19,0,0,1,22.8,20.49A242.09,242.09,0,0,1,77.9,219.17a235.86,235.86,0,0,1-23.42-18.7,119.82,119.82,0,0,1,26.46,13.92"
        fill="#36e69a"/>
      <path
        d="M93.66,205.48a258.38,258.38,0,0,0,10.08,29.39,125.63,125.63,0,0,0-4.5-30.52,135.9,135.9,0,0,0-12.06-29.44,260.33,260.33,0,0,0,6.47,30.57"
        fill="#36e69a"/>
      <path
        d="M107.32,213.52a250.14,250.14,0,0,0,2.06,30.67,119.93,119.93,0,0,0,3.76-30.05,131.24,131.24,0,0,0-4-31.36,238.1,238.1,0,0,0-1.87,30.74"
        fill="#25b774"/>
      <path
        d="M83.08,229.56a121.93,121.93,0,0,1,26.29,14.64A225.91,225.91,0,0,1,81.21,235a228.11,228.11,0,0,1-26.37-12.69,113.61,113.61,0,0,1,28.25,7.29"
        fill="#25b774"/>
      <path
        d="M88.06,243.83A118.11,118.11,0,0,1,115.62,255a211,211,0,0,1-28.78-5.6,220.87,220.87,0,0,1-27.42-9.33,114,114,0,0,1,28.65,3.73"
        fill="#25b774"/>
      <path
        d="M118.71,224.79a238,238,0,0,0-3.1,30.25,117.11,117.11,0,0,0,8.82-28.54,127.44,127.44,0,0,0,1.42-31.19,213.92,213.92,0,0,0-7.15,29.48"
        fill="#25b774"/>
      <path
        d="M98.86,262a118.24,118.24,0,0,1,27.07,12.34,212.3,212.3,0,0,1-28.53-6.79,220.78,220.78,0,0,1-27-10.45A114.06,114.06,0,0,1,98.86,262"
        fill="#068e4d"/>
      <path
        d="M130.27,244.29a236.56,236.56,0,0,0-4.34,30.1,116.94,116.94,0,0,0,10-28.16,127.42,127.42,0,0,0,2.71-31.1,214.43,214.43,0,0,0-8.36,29.16"
        fill="#068e4d"/>
      <path
        d="M108.9,280.69a118.21,118.21,0,0,1,26.54,13.47,213.62,213.62,0,0,1-28.23-8,221.65,221.65,0,0,1-26.55-11.57,113.82,113.82,0,0,1,28.24,6.08"
        fill="#068e4d"/>
      <path
        d="M141,264.26a236.09,236.09,0,0,0-5.58,29.9,117.46,117.46,0,0,0,11.15-27.73,127.2,127.2,0,0,0,4-31A214.24,214.24,0,0,0,141,264.26"
        fill="#068e4d"/>
      <path d="M92.62,217.67A529.26,529.26,0,0,1,149.48,328" fill="none" stroke="#36e69a" stroke-linecap="round"
            stroke-linejoin="round" stroke-width="2"/>
    </g>
  </g>

  <g>
    <path id="airship-window" style="opacity: 0"
          d="M275,225.43H257.87a17.6,17.6,0,0,1-17.52-17.58V170a17.6,17.6,0,0,1,17.52-17.58H275A17.6,17.6,0,0,1,292.51,170v37.83A17.61,17.61,0,0,1,275,225.43Z"
          fill="none" stroke="#fff" stroke-width="2"/>
    <defs>
      <clipPath id="window">
        <path
          d="M275,225.43H257.87a17.6,17.6,0,0,1-17.52-17.58V170a17.6,17.6,0,0,1,17.52-17.58H275A17.6,17.6,0,0,1,292.51,170v37.83A17.61,17.61,0,0,1,275,225.43Z"/>
      </clipPath>
    </defs>
    <g clip-path="url(#window)">
      <g transform="translate(230 170)">
        <g transform="scale(0.6)">
          <line id="cloud-first-top-airship-inside" style="opacity: 0" x1="28.18" y1="38.34" x2="91.09" y2="38.34"
                fill="none" stroke="#fff" stroke-linecap="round"
                stroke-miterlimit="10" stroke-width="3"/>
          <path id="cloud-first-bottom-airship-inside" style="opacity: 0"
                d="M41.77,97.54H77.06a12.4,12.4,0,1,1,24.8,0h17.93" transform="translate(-40.77 -69.46)" fill="none"
                stroke="#fff" stroke-linecap="round" stroke-miterlimit="10" stroke-width="3"/>
          <g id="cloud-two-top-airship-inside" style="opacity: 0">
            <line x1="246.24" y1="13.45" x2="268.43" y2="13.45" fill="none" stroke="#fff" stroke-linecap="round"
                  stroke-miterlimit="10" stroke-width="3"/>
            <path d="M278.75,82.91H251.39a12.4,12.4,0,1,0-24.8,0H208.65" transform="translate(-40.77 -69.46)"
                  fill="none"
                  stroke="#fff" stroke-linecap="round" stroke-miterlimit="10" stroke-width="3"/>
          </g>
          <line id="cloud-two-bottom-airship-inside" style="opacity: 0" x1="218.19" y1="23.72" x2="257.97" y2="23.72"
                fill="none" stroke="#fff" stroke-linecap="round"
                stroke-miterlimit="10" stroke-width="3"/>
        </g>
      </g>
    </g>
  </g>

  <g>
    <path id="mountain"
      d="M289.94,327.88H244.88L212.8,296.58a1.89,1.89,0,0,0-2.44,0l-10.2,10.23a1.72,1.72,0,0,1-2.25,0l-19-20.17a2.4,2.4,0,0,0-3.1,0l-26.42,25.64a1.71,1.71,0,0,1-2.25,0l-2.63-2.92a1.71,1.71,0,0,0-2.31,0L124.63,329H80.78"
      fill="none" stroke="#fff" stroke-linecap="round" stroke-miterlimit="10" stroke-width="2"/>
    <path d="M289.94,328H200.15c-0.86,0-1.56,0-2.25,0h-19c-1.5,0-2.23,0-3.1,0h-32.3c-1.09,0-1.66,0-2.31,0H80.78"
          fill="none" stroke="#fff" stroke-linecap="round" stroke-miterlimit="10" stroke-width="2"/>
  </g>


  <!--Верхенне заднее крыло-->
  <animateTransform xlink:href="#airship-rear-wing-top" attributeName="transform"
                    type="translate"
                    values="0 2; 0 -2; 0 2"
                    keyTimes="0; 0.3; 1"
                    calcMode="paced"
                    dur="2s"
                    additive="sum"
                    repeatCount="indefinite"/>
  <!--Верхенне заднее крыло конец-->

  <!--Нижнее заднее крыло-->
  <animateTransform xlink:href="#airship-rear-wing-bottom" attributeName="transform"
                    type="translate"
                    values="0 2; 0 -2; 0 2"
                    keyTimes="0; 0.3; 1"
                    calcMode="paced"
                    dur="2s"
                    additive="sum"
                    repeatCount="indefinite"/>
  <!--Нижнее заднее крыло конец-->

  <!--Верхенне переднее крыло-->
  <animateTransform xlink:href="#airship-front-wing-top" attributeName="transform"
                    type="translate"
                    values="0 -2; 0 2; 0 -2"
                    keyTimes="0; 0.3; 1"
                    calcMode="paced"
                    dur="2s"
                    additive="sum"
                    repeatCount="indefinite"/>
  <!--Верхенне переднее крыло конец-->

  <!--Нижнее переднее крыло-->
  <animateTransform xlink:href="#airship-front-wing-bottom" attributeName="transform"
                    type="translate"
                    values="0 -2; 0 2; 0 -2"
                    keyTimes="0; 0.3; 1"
                    calcMode="paced"
                    dur="2s"
                    additive="sum"
                    repeatCount="indefinite"/>
  <!--Нижнее переднее крыло конец-->

  <!--Центральная часть -->
  <animate xlink:href="#airship-body-center" attributeName="d"
           values="M132.18 186.12C148.92 181.85 176.77 173 205 173C249.53 173 278.25 182.55 278.6 190.5C278.6 190.67 278.6 190.84 278.6 191.01C277.75 198.87 249.15 203 205 203C176.77 203 148.93 199.42 132.19 195.18C128.4 194.18 126.4 192.65 126.19 191.05V190.54C126.32 188.85 128.34 187.18 132.29 186.17;
                           M 132.18 186.12C148.92 181.85 176.77 178.5 205 178.5C249.53 178.5 278.25 182.55 278.6 190.5C278.6 190.67 278.6 190.84 278.6 191.01C277.75 198.87 252.15 209 208 209C179.77 209 148.93 199.42 132.19 195.18C128.4 194.18 126.4 192.65 126.19 191.05V190.54C126.32 188.85 128.34 187.18 132.29 186.17;
                           M132.18 186.12C148.92 181.85 176.77 173 205 173C249.53 173 278.25 182.55 278.6 190.5C278.6 190.67 278.6 190.84 278.6 191.01C277.75 198.87 249.15 203 205 203C176.77 203 148.93 199.42 132.19 195.18C128.4 194.18 126.4 192.65 126.19 191.05V190.54C126.32 188.85 128.34 187.18 132.29 186.17;"
           dur="2s"
           fill="freeze"
           repeatCount="indefinite"
  />
  <!--Центральная часть конец-->

  <!--Окошки-->
  <animateTransform xlink:href="#airship-windows" attributeName="transform"
                    type="translate"
                    values="0 0; 0 20; 0 0; 0 44; 0 0"
                    keyTimes="0; 0.3; 1"
                    calcMode="paced"
                    dur="2s"
                    additive="sum"
                    begin="-0.6s"
                    repeatCount="indefinite"/>
  <animateTransform xlink:href="#airship-windows" attributeName="transform"
                    type="scale"
                    values="1 1; 1 0.9; 1 1; 1 0.8; 1 1"
                    keyTimes="0; 0.3; 1"
                    calcMode="paced"
                    dur="2s"
                    additive="sum"
                    begin="-0.6s"
                    repeatCount="indefinite"/>
  <animateTransform xlink:href="#airship-windows" attributeName="transform"
                    type="translate"
                    values="0 0; -20 0; 0 0; -25 0; 0 0"
                    keyTimes="0; 0.3; 1"
                    calcMode="paced"
                    dur="2s"
                    additive="sum"
                    begin="-0.6s"
                    repeatCount="indefinite"/>
  <animateTransform xlink:href="#airship-windows" attributeName="transform"
                    type="skewX"
                    values="0; 5; 0; 6; 0"
                    keyTimes="0; 0.3; 1"
                    calcMode="paced"
                    dur="2s"
                    additive="sum"
                    begin="-0.6s"
                    repeatCount="indefinite"/>
  <!--Окошки конец-->

  <!--Облако первое-->
  <animateMotion id="cloud-first" xlink:href="#cloud-first-top"
                 values="200,0; 200,0; 0,0"
                 dur="2s"
  />
  <animate xlink:href="#cloud-first-top"
           attributeType="CSS"
           attributeName="opacity"
           values="0; 1; 1; 1; 0"
           fill="freeze"
           dur="2s"
  />
  <animateMotion xlink:href="#cloud-first-bottom"
                 values="200,0; 200,0; 0,0"
                 dur="2.2s"
  />
  <animate xlink:href="#cloud-first-bottom"
           attributeType="CSS"
           attributeName="opacity"
           values="0; 1; 1; 1; 0"
           fill="freeze"
           dur="2.2s"
  />
  <!--Облако первое конец-->

  <!--Облако второе-->
  <animateMotion xlink:href="#cloud-two-top"
                 values="0,0; 0,0; -200,0"
                 dur="2s"
                 begin="cloud-first.begin + 2s"
  />
  <animate xlink:href="#cloud-two-top"
           attributeType="CSS"
           attributeName="opacity"
           values="0; 1; 1; 1; 0"
           fill="freeze"
           dur="2s"
           begin="cloud-first.begin + 2s"
  />
  <animateMotion xlink:href="#cloud-two-bottom"
                 values="0,0; 0,0; -200,0"
                 dur="2.2s"
                 begin="cloud-first.begin + 2s"
  />
  <animate xlink:href="#cloud-two-bottom"
           attributeType="CSS"
           attributeName="opacity"
           values="0; 1; 1; 1; 0"
           fill="freeze"
           dur="2.2s"
           begin="cloud-first.begin + 2s"
  />
  <!--Облако второе конец-->

  <!--Огонь-->
  <animate xlink:href="#fire-top"
           attributeName="x2"
           values="84.05; 78.77; 92.05; 76.77; 84.05"
           fill="freeze"
           dur="0.3s"
           repeatCount="indefinite"
  />
  <animate xlink:href="#fire-middle"
           attributeName="x2"
           values="60.77; 72.05; 60.77; 68.05"
           fill="freeze"
           dur="0.3s"
           repeatCount="indefinite"
  />
  <animate xlink:href="#fire-bottom"
           attributeName="x2"
           values="84.05; 76.77; 87.05; 76.77; 84.05"
           fill="freeze"
           dur="0.3s"
           begin="-0.01s"
           repeatCount="indefinite"
  />
  <!--Огонь конец-->

  <!--Внутри-->
  <animate id="airship-outside-animate" xlink:href="#airship-outside"
           attributeType="CSS"
           attributeName="opacity"
           values="1; 0"
           fill="freeze"
           dur="0.2s"
           begin="3s"

  />
  <!--Внутри конец-->

  <!--Анимация горы-->
  <animate xlink:href="#mountain" attributeName="d"
           from="M 289.94 327.88 L 244.88 327.88 L 212.8 296.58 C 212.459 296.292 212.027 296.134 211.58 296.134 C 211.133 296.134 210.701 296.292 210.36 296.58 L 200.16 306.81 C 199.848 307.08 199.448 307.229 199.035 307.229 C 198.622 307.229 198.222 307.08 197.91 306.81 C 191.577 300.087 185.243 293.363 178.91 286.64 C 178.477 286.274 177.927 286.072 177.36 286.072 C 176.793 286.072 176.243 286.274 175.81 286.64 C 167.003 295.187 158.197 303.733 149.39 312.28 C 149.079 312.552 148.679 312.702 148.265 312.702 C 147.851 312.702 147.451 312.552 147.14 312.28 C 146.263 311.307 145.387 310.333 144.51 309.36 C 144.195 309.071 143.782 308.911 143.355 308.911 C 142.928 308.911 142.515 309.071 142.2 309.36 C 136.343 315.907 130.487 322.453 124.63 329 L 80.78 329"
           to="M 289.94 328 L 271.982 328 L 254.024 328 C 248.038 328 242.052 328 236.066 328 C 230.08 328 224.094 328 218.108 328 L 200.15 328 C 199.29 328 198.59 328 197.9 328 C 191.567 328 185.233 328 178.9 328 C 178.525 328 178.198 328 177.905 328 C 177.612 328 177.353 328 177.114 328 C 176.874 328 176.655 328 176.44 328 C 176.226 328 176.018 328 175.8 328 C 165.033 328 154.267 328 143.5 328 C 143.282 328 143.085 328 142.904 328 C 142.722 328 142.557 328 142.403 328 C 142.249 328 142.106 328 141.97 328 C 141.834 328 141.704 328 141.575 328 C 141.447 328 141.32 328 141.19 328 L 80.78 328"
           dur="0.2s"
           fill="freeze"
           begin="airship-window-animate.begin + 0.1s"
  />
  <!--Анимация горы конец-->

  <!--Анимация окошка-->
  <animate id="airship-window-animate" xlink:href="#airship-window" attributeName="d"
           from="M 198.77 239.335 C 198.77 237.638 198.77 235.942 198.77 234.245 C 198.771 233.619 199.086 233.019 199.647 232.576 C 199.928 232.355 200.258 232.181 200.617 232.063 C 200.977 231.945 201.365 231.881 201.763 231.88 L 204.689 231.88 C 205.483 231.883 206.243 232.134 206.804 232.577 C 207.364 233.02 207.679 233.619 207.68 234.245 L 207.68 239.333 C 207.68 239.958 207.365 240.558 206.804 241.002 C 206.244 241.446 205.484 241.696 204.689 241.7 L 204.689 241.7 L 201.763 241.7 C 200.968 241.697 200.208 241.447 199.647 241.004 C 199.086 240.561 198.771 239.961 198.77 239.335"
           to="M 245.484 220.254 C 242.201 216.96 240.355 212.501 240.35 207.85 C 240.35 195.233 240.35 182.617 240.35 170 C 240.355 165.349 242.201 160.89 245.484 157.596 C 248.766 154.302 253.219 152.441 257.87 152.42 L 275 152.42 C 279.649 152.444 284.099 154.306 287.38 157.6 C 290.66 160.893 292.505 165.351 292.51 170 L 292.51 207.83 C 292.507 212.481 290.665 216.943 287.384 220.24 C 284.103 223.538 279.651 225.404 275 225.43 L 275 225.43 L 275 225.43 C 269.29 225.43 263.58 225.43 257.87 225.43 C 253.219 225.409 248.766 223.548 245.484 220.254"
           dur="0.5s"
           fill="freeze"
           begin="3s"
           repeatCount="1"
  />

  <animate xlink:href="#airship-window"
           attributeType="CSS"
           attributeName="opacity"
           values="0; 1"
           fill="freeze"
           dur="0.1s"
           begin="3s"

  />

  <animate xlink:href="#window-small"
           attributeType="CSS"
           attributeName="opacity"
           values="1; 0"
           fill="freeze"
           dur="0.1s"
           begin="3s"

  />
  <!--Окно конец-->

  <!--Облако первое-->
  <animateMotion id="cloud-first-top-airship-inside-animate" xlink:href="#cloud-first-top-airship-inside"
                 values="110,0; 110,0; -100, 0"
                 dur="2.2s"
                 begin="airship-window-animate.begin + 0.1s"
  />
  <animate xlink:href="#cloud-first-top-airship-inside"
           attributeType="CSS"
           attributeName="opacity"
           values="0; 1; 1; 1; 0"
           fill="freeze"
           dur="2.2s"
           begin="airship-window-animate.begin + 0.1s"
  />
  <animateMotion xlink:href="#cloud-first-bottom-airship-inside"
                 values="110,0; 110,0; -100, 0"
                 dur="2s"
                 begin="airship-window-animate.begin + 0.1s"
  />
  <animate xlink:href="#cloud-first-bottom-airship-inside"
           attributeType="CSS"
           attributeName="opacity"
           values="0; 1; 1; 1; 0"
           fill="freeze"
           dur="2s"
           begin="airship-window-animate.begin + 0.1s"
  />
  <!--Облако первое конец-->

  <!--Облако второе-->
  <animateMotion xlink:href="#cloud-two-top-airship-inside"
                 values="50,0; 50,0; -300,0"
                 dur="4s"
                 begin="cloud-first-top-airship-inside-animate.begin + 0.5s"
  />
  <animate xlink:href="#cloud-two-top-airship-inside"
           attributeType="CSS"
           attributeName="opacity"
           values="0; 1; 1; 1; 0"
           fill="freeze"
           dur="4s"
           begin="cloud-first-top-airship-inside-animate.begin + 0.5s"
  />
  <animateMotion xlink:href="#cloud-two-bottom-airship-inside"
                 values="50,0; 50,0; -300,0"
                 dur="4.5s"
                 begin="cloud-first-top-airship-inside-animate.begin + 0.5s"
  />
  <animate xlink:href="#cloud-two-bottom-airship-inside"
           attributeType="CSS"
           attributeName="opacity"
           values="0; 1; 1; 1; 0"
           fill="freeze"
           dur="4.5s"
           begin="cloud-first-top-airship-inside-animate.begin + 0.5s"
  />
  <!--Облако второе конец-->

  <!--Снаружи-->
  <animate id="airship-inside-animate" xlink:href="#airship-inside"
           attributeType="CSS"
           attributeName="opacity"
           values="0; 1"
           fill="freeze"
           dur="0.2s"
           begin="airship-outside-animate.begin + 0.2s"
  />
  <!--Снаружи конец-->

  <!--Кресло-->
  <animate id="armchair-animate" xlink:href="#armchair"
           attributeName="opacity"
           values="0; 1"
           fill="freeze"
           dur="0.2s"
           begin="airship-inside-animate.begin  + 0.2s"
  />
  <animateTransform xlink:href="#armchair" attributeName="transform"
                    type="translate"
                    values="-100 0; 0 0;"
                    dur="0.2s"
                    additive="sum"
                    begin="airship-inside-animate.begin  + 0.2s"
  />
  <!--Кресло конец-->

  <!--Лист-->
  <animate id="leaf-animate" xlink:href="#leaf"
           attributeName="opacity"
           values="0; 1"
           fill="freeze"
           dur="0.2s"
           begin="armchair-animate.begin  + 0.2s"
  />
  <animateTransform xlink:href="#leaf" attributeName="transform"
                    type="translate"
                    values="-100 0; 0 0;"
                    dur="0.2s"
                    additive="sum"
                    begin="airship-inside-animate.begin  + 0.2s"
  />
  <animateTransform id="leaf-animate-transform" xlink:href="#leaf" attributeName="transform"
                    type="rotate"
                    values="0, 105, 350; 5, 105, 350; -5, 105, 350;  3, 105, 350; -2, 105, 350; 0, 105, 350"
                    dur="1.5s"
                    additive="sum"
                    begin="leaf-animate.begin  + 0.2s"
  />
  <!--Лист конец-->

  <!--Лыжи-->
  <animate id="skis-animate" xlink:href="#skis"
           attributeName="opacity"
           values="0; 1"
           fill="freeze"
           dur="0.3s"
           begin="armchair-animate.begin  + 0.1s"
  />

  <animateTransform xlink:href="#skis" attributeName="transform"
                    type="translate"
                    values="-60 0; 0 0;"
                    dur="0.2s"
                    additive="sum"
                    begin="armchair-animate.begin  + 0.2s"
  />
  <!--Лыжи конец-->


</svg>


